<?xml version="1.0" encoding="utf-8"?>
<!-- Generator: Adobe Illustrator 26.0.0, SVG Export Plug-In . SVG Version: 6.00 Build 0)  -->
<svg version="1.1" id="Capa_1" xmlns="http://www.w3.org/2000/svg" xmlns:xlink="http://www.w3.org/1999/xlink" x="0px" y="0px"
	 viewBox="0 0 1200 841.9" style="enable-background:new 0 0 1200 841.9;" xml:space="preserve">
<style type="text/css">
	.st0{fill:#864299;}
</style>
<g>
	<path class="st0" d="M397.6,307.4c12.4,0,24.7,0,35.5,0c5.6-12.4,10.7-23.7,15.3-35c0.7-1.7-0.2-4.9-1.6-6.3
		c-7.3-7.5-15.1-14.6-22.1-21.3c9.7-9.7,18.5-18.5,28.7-28.8c6,6.6,13.1,14,20,21.7c3,3.3,5.4,3.6,9.6,1.6c9-4.4,18.4-8,27.9-11.3
		c3.4-1.2,4.6-2.7,4.6-6.1c-0.2-10.7-0.1-21.3-0.1-32.3c12.8,0,24.9,0,37.9,0c0,10.1,0.2,20.1-0.1,30.1c-0.2,5,0.8,7.3,6.5,9
		c10.6,3.1,20.6,7.9,32.8,12.8c7-8,14.9-17.2,22.4-25.8c10.5,10.5,19.2,19.3,28,28c-7.8,7.6-16.4,16.1-23.8,23.3
		c5,13.7,9.2,25.7,13.8,37.5c0.6,1.4,3.5,2.5,5.4,2.5c10.9,0.2,21.7,0.1,32.8,0.1c0,12.8,0,24.9,0,37.8c-10.8,0-21.2,0.2-31.6-0.1
		c-4.6-0.1-6.1,1.2-7.6,5.8c-3.4,10.7-8.1,21-12.5,32.1c7.9,7.7,16.7,16.3,25.1,24.5c-9.8,9.7-18.5,18.4-27.7,27.5
		c-7.6-8.2-16-17.2-23-24.8c-13.8,5.2-25.2,9.7-36.8,13.7c-3.5,1.2-3.6,3.2-3.6,6.1c0.1,10.7,0,21.3,0,32.3c-12.8,0-24.9,0-37.5,0
		c0-12.2,0-24.3,0-35.8c-13-5.4-25.3-10.4-38.4-15.8c-7.7,8-16.2,16.9-24.6,25.7c-9.8-9.8-18.6-18.7-27.8-28.2
		c8.3-8.1,17-16.5,25.2-24.5c-5.5-13.1-10.6-25.3-16-38.2c-11.6,0-24,0-36.3,0C397.6,332.5,397.6,320,397.6,307.4z M535.7,366.9
		c23.9-0.7,40.3-18.9,39.7-44c-0.6-21.3-20.3-39.5-42.2-38.9c-22.9,0.7-41.7,20.7-40.9,43.2C493.2,350.1,512.3,367.6,535.7,366.9z"
		/>
	<path class="st0" d="M717.9,560.6c-0.1-8.2-0.4-16.3-0.3-24.5c0-3.5-1.1-4.8-4.6-5.9c-8.1-2.6-15.9-6.1-25.4-9.9
		c-5.7,6-11.9,12.7-18.1,19.4c-6.9-7-13.3-13.5-20.2-20.5c6.3-5.8,13.1-12,19.2-17.6c-4.6-10.9-8.4-20.2-12.6-30.3
		c-8.3,0-17.7,0-27.4,0c0-9.7,0-18.9,0-29.1c7.6,0,15.3-0.2,22.9,0.1c4.2,0.2,5.6-1.5,6.9-5.3c2.1-6.7,5.1-13.3,8.1-19.7
		c1.4-2.9,1.6-4.7-1-7.1c-5.8-5.2-11.1-10.8-16.3-15.7c6.9-7,13.3-13.5,20-20.1c5.6,6.1,11.7,12.9,17.2,18.8
		c11.4-4.7,20.9-8.6,31.3-12.9c0-8.3,0-17.4,0-27.1c9.9,0,19.2,0,29.1,0c0,9.4,0,18.6,0,27.2c9.8,4,19.1,7.8,29.5,12
		c5.5-6.2,11.6-13,17.7-20c7.6,8,14,14.8,20.8,21.8c-6.1,5.7-12.8,11.9-18.6,17.3c3.9,10.2,7,18.6,10.6,26.7
		c0.7,1.5,3.3,2.8,5.2,2.9c8.2,0.6,16.4,0.7,24.5,1.1c0,9.7,0,19.3,0,29c-8.4,0-16.8-0.2-25.2,0.2c-1.8,0.1-4.2,2.1-4.9,3.9
		c-3.4,8-6.4,16.2-10.2,26c5.9,5.2,12.9,11.5,19.5,17.4c-7.2,7.5-13.7,14.1-20.9,21.6c-6.2-7-12.5-14-17.7-19.9
		c-10.1,3.9-18.5,7-26.8,10.5c-1.6,0.6-3.3,3.1-3.3,4.7c-0.4,8.4-0.2,16.7-0.2,25.1C737.3,560.6,727.7,560.6,717.9,560.6z
		 M731.6,487.5c15.1,2.3,32.2-12.5,32.1-31.2c-0.1-17.9-13.9-31.4-32.8-31.5c-15.5-0.1-30.3,14.9-30.4,31
		C700.4,473.4,714.2,487.5,731.6,487.5z"/>
</g>
</svg>
