<svg width="33" height="33" viewBox="0 0 33 33" fill="none" xmlns="http://www.w3.org/2000/svg">
<path d="M31.5 7.87888C31.5 8.91488 30.66 9.75488 29.6213 9.75488H2.87867C1.83867 9.75488 1 8.91488 1 7.87888C1 6.84155 1.83867 6.00022 2.87867 6.00022H29.6213C30.66 6.00022 31.5 6.84155 31.5 7.87888Z" fill="#231F20"/>
<path d="M31.5 16.1129C31.5 17.1502 30.66 17.9902 29.6213 17.9902H2.87867C1.83867 17.9902 1 17.1502 1 16.1129C1 15.0769 1.83867 14.2356 2.87867 14.2356H29.6213C30.66 14.2356 31.5 15.0769 31.5 16.1129Z" fill="#231F20"/>
<path d="M31.5 24.3487C31.5 25.3847 30.66 26.2261 29.6213 26.2261H2.87867C1.83867 26.2261 1 25.3847 1 24.3487C1 23.3127 1.83867 22.4714 2.87867 22.4714H29.6213C30.66 22.4714 31.5 23.3127 31.5 24.3487Z" fill="#231F20"/>
</svg>
