<svg width="56" height="56" viewBox="0 0 56 56" fill="none" xmlns="http://www.w3.org/2000/svg">
<path d="M27.8319 33.6821C30.832 33.6821 33.2848 31.2321 33.2848 28.2129C33.2848 27.0216 32.9014 25.9213 32.2604 25.0264C31.2652 23.6474 29.6554 22.7466 27.8319 22.7466C26.0083 22.7466 24.4014 23.6444 23.4063 25.0264C22.7594 25.9213 22.376 27.0216 22.3701 28.2129C22.3701 31.2321 24.8171 33.6821 27.8319 33.6821Z" fill="#231F20"/>
<path d="M39.7505 21.5202L39.7505 16.2534L39.0627 16.2534L34.4849 16.2681L34.5141 21.5349L39.7505 21.5202Z" fill="#231F20"/>
<path d="M27.8317 0.887205C12.8017 0.887206 0.572755 13.146 0.572756 28.2128C0.572758 43.2855 12.8017 55.5413 27.8288 55.5413C42.8647 55.5413 55.0906 43.2825 55.0906 28.2128C55.0936 13.146 42.8647 0.887203 27.8317 0.887205ZM43.333 25.0263L43.333 37.7517C43.333 41.0643 40.6519 43.7549 37.3356 43.7549L18.319 43.7549C15.0145 43.7549 12.3275 41.0643 12.3275 37.7517L12.3275 18.6827C12.3275 15.3672 15.0145 12.6766 18.319 12.6766L37.3385 12.6766C40.6548 12.6766 43.3359 15.3701 43.3359 18.6827L43.333 25.0263Z" fill="#231F20"/>
<path d="M36.3082 28.2128C36.3082 32.8986 32.5119 36.716 27.8288 36.716C23.1456 36.716 19.3523 32.9016 19.3523 28.2128C19.3523 27.0891 19.5747 26.0093 19.9757 25.0264L15.3511 25.0264L15.3511 37.7517C15.3511 39.3978 16.677 40.7269 18.319 40.7269L37.3385 40.7269C38.9806 40.7269 40.3123 39.3978 40.3123 37.7517L40.3123 25.0264L35.6877 25.0264C36.0799 26.0093 36.3082 27.0891 36.3082 28.2128Z" fill="#231F20"/>
</svg>
