<svg width="57" height="56" viewBox="0 0 57 56" fill="none" xmlns="http://www.w3.org/2000/svg">
<path d="M28.4451 0.354001C13.2322 0.354003 0.851564 12.7343 0.851565 27.9484C0.851566 43.1655 13.2322 55.5459 28.4452 55.5459C43.6627 55.5459 56.0434 43.1655 56.0434 27.9484C56.0419 12.7343 43.6627 0.354 28.4451 0.354001ZM35.308 28.9189L30.8202 28.9189L30.8202 44.9226L24.1648 44.9226L24.1648 28.9189L21.0018 28.9189L21.0018 23.264L24.1648 23.264L24.1648 19.6064C24.1648 16.9896 25.4101 12.8919 30.8795 12.8919L35.8121 12.9122L35.8121 18.4002L32.2308 18.4002C31.6425 18.4002 30.8202 18.6951 30.8202 19.9419L30.8202 23.2687L35.8917 23.2687L35.308 28.9189Z" fill="#231F20"/>
</svg>
