<svg width="56" height="56" viewBox="0 0 56 56" fill="none" xmlns="http://www.w3.org/2000/svg">
<path d="M28.22 0.354001C13.0082 0.354003 0.627198 12.7375 0.6272 27.9484C0.627201 43.1655 13.0082 55.5459 28.22 55.5459C43.438 55.5459 55.8191 43.1655 55.8191 27.9484C55.8175 12.7374 43.438 0.354 28.22 0.354001ZM40.5339 21.6381C40.5449 21.9064 40.5495 22.1842 40.5495 22.462C40.5495 30.8507 34.1624 40.5253 22.4805 40.5253C18.8882 40.5253 15.5487 39.4798 12.7429 37.6713C13.2376 37.7337 13.7448 37.7634 14.2535 37.7634C17.2309 37.7634 19.9696 36.7507 22.145 35.0467C19.3688 34.9921 17.0281 33.1586 16.2135 30.6354C16.6005 30.7134 16.9953 30.7478 17.4088 30.7478C17.9815 30.7478 18.5496 30.6729 19.0817 30.5246C16.1792 29.9441 13.982 27.3773 13.982 24.3001C13.982 24.2736 13.982 24.2471 13.9882 24.219C14.8418 24.6965 15.8203 24.9773 16.8658 25.0101C15.1633 23.8757 14.0366 21.9283 14.0366 19.725C14.0366 18.5625 14.3534 17.4733 14.8918 16.5324C18.0252 20.3772 22.7114 22.9067 27.9844 23.1704C27.8798 22.7038 27.8252 22.2216 27.8252 21.7223C27.8252 18.2161 30.6669 15.3714 34.1718 15.3714C36.0007 15.3714 37.6501 16.1438 38.808 17.375C40.2546 17.091 41.6216 16.5667 42.845 15.8333C42.3675 17.3204 41.3641 18.5625 40.0471 19.352C41.3391 19.1991 42.5641 18.859 43.7002 18.3534C42.8513 19.6236 41.7698 20.7393 40.5339 21.6381Z" fill="#231F20"/>
</svg>
