<svg width="56" height="55" viewBox="0 0 56 55" fill="none" xmlns="http://www.w3.org/2000/svg">
<path d="M27.8319 33.1362C30.832 33.1362 33.2848 30.6862 33.2848 27.667C33.2848 26.4757 32.9014 25.3754 32.2604 24.4805C31.2652 23.1015 29.6554 22.2007 27.8319 22.2007C26.0083 22.2007 24.4014 23.0985 23.4063 24.4805C22.7594 25.3754 22.376 26.4757 22.3701 27.667C22.3701 30.6862 24.8171 33.1362 27.8319 33.1362Z" fill="white"/>
<path d="M39.7505 20.974L39.7505 15.7073L39.0627 15.7073L34.4849 15.7219L34.5141 20.9887L39.7505 20.974Z" fill="white"/>
<path d="M27.8317 0.341306C12.8017 0.341308 0.572755 12.6001 0.572756 27.6669C0.572758 42.7396 12.8017 54.9954 27.8288 54.9954C42.8647 54.9954 55.0906 42.7366 55.0906 27.6669C55.0936 12.6001 42.8647 0.341305 27.8317 0.341306ZM43.333 24.4804L43.333 37.2058C43.333 40.5184 40.6519 43.209 37.3356 43.209L18.319 43.209C15.0145 43.209 12.3275 40.5184 12.3275 37.2058L12.3275 18.1368C12.3275 14.8213 15.0145 12.1307 18.319 12.1307L37.3385 12.1307C40.6548 12.1307 43.3359 14.8242 43.3359 18.1368L43.333 24.4804Z" fill="white"/>
<path d="M36.3082 27.6669C36.3082 32.3527 32.5119 36.1701 27.8288 36.1701C23.1456 36.1701 19.3523 32.3557 19.3523 27.6669C19.3523 26.5432 19.5747 25.4634 19.9757 24.4805L15.3511 24.4805L15.3511 37.2058C15.3511 38.8519 16.677 40.181 18.319 40.181L37.3385 40.181C38.9806 40.181 40.3123 38.8519 40.3123 37.2058L40.3123 24.4805L35.6877 24.4805C36.0799 25.4634 36.3082 26.5432 36.3082 27.6669Z" fill="white"/>
</svg>
