<svg width="56" height="56" viewBox="0 0 56 56" fill="none" xmlns="http://www.w3.org/2000/svg">
<path d="M28.22 0.808103C13.0082 0.808104 0.627198 13.1916 0.6272 28.4025C0.627201 43.6196 13.0082 56 28.22 56C43.438 56 55.8191 43.6196 55.8191 28.4025C55.8175 13.1915 43.438 0.808102 28.22 0.808103ZM40.5339 22.0922C40.5449 22.3605 40.5495 22.6383 40.5495 22.9161C40.5495 31.3048 34.1624 40.9794 22.4805 40.9794C18.8882 40.9794 15.5487 39.9339 12.7429 38.1254C13.2376 38.1878 13.7448 38.2175 14.2535 38.2175C17.2309 38.2175 19.9696 37.2048 22.145 35.5008C19.3688 35.4462 17.0281 33.6127 16.2135 31.0895C16.6005 31.1675 16.9953 31.2019 17.4088 31.2019C17.9815 31.2019 18.5496 31.127 19.0817 30.9787C16.1792 30.3982 13.982 27.8314 13.982 24.7542C13.982 24.7277 13.982 24.7012 13.9882 24.6731C14.8418 25.1506 15.8203 25.4314 16.8658 25.4642C15.1633 24.3298 14.0366 22.3824 14.0366 20.1791C14.0366 19.0166 14.3534 17.9274 14.8918 16.9865C18.0252 20.8313 22.7114 23.3608 27.9844 23.6245C27.8798 23.1579 27.8252 22.6757 27.8252 22.1764C27.8252 18.6702 30.6669 15.8255 34.1718 15.8255C36.0007 15.8255 37.6501 16.5979 38.808 17.8291C40.2546 17.5451 41.6216 17.0208 42.845 16.2874C42.3675 17.7745 41.3641 19.0166 40.0471 19.8061C41.3391 19.6532 42.5641 19.3131 43.7002 18.8075C42.8513 20.0777 41.7698 21.1934 40.5339 22.0922Z" fill="white"/>
</svg>
