<svg width="188" height="150" viewBox="0 0 188 150" fill="none" xmlns="http://www.w3.org/2000/svg">
<path d="M56.4846 149.919C55.8481 150.238 55.2117 149.522 55.2117 149.522L1.58968 89.0569C1.1554 88.4869 0.930638 87.7847 0.953207 87.0685C0.972097 86.4562 1.19626 85.868 1.58968 85.3984L14.8768 70.044C15.3626 69.5235 15.6454 68.8459 15.6737 68.1345C15.6737 67.4191 14.7979 66.5434 14.7979 66.5434L1.67879 53.1748C1.67879 53.1748 0.484762 52.1411 0.247992 51.4257C-0.0702471 50.7103 0.00867555 49.1191 0.00867555 49.1191V0.904669C0.00867555 0.904669 0.00867681 0.189268 0.487308 0.0288753C0.965939 -0.131517 1.4242 0.428583 1.4242 0.428583L49.0073 66.383C49.0073 66.383 49.8042 67.4166 49.7227 68.2924C49.6438 69.0078 48.5287 69.8836 48.5287 69.8836L30.3101 85.7166C30.3101 85.7166 29.2765 86.5924 29.1161 87.3078C28.9981 88.0484 29.1383 88.8071 29.5132 89.4566L56.7239 148.728C56.645 148.886 57.0422 149.601 56.4846 149.919Z" fill="#231F20"/>
<path d="M87.7536 49.2032L86.7989 50.4761C85.6898 49.3341 84.1745 48.6762 82.5829 48.6456C79.3292 48.6405 76.7833 51.1075 76.7833 54.295C76.7833 57.3984 79.4081 59.9444 82.5905 59.9444C83.3737 59.9441 84.1492 59.7895 84.8726 59.4894C85.596 59.1893 86.2532 58.7496 86.8065 58.1953L87.8402 59.3104C86.4086 60.7002 84.5038 61.4961 82.509 61.5381C78.3719 61.5381 75.1106 58.3557 75.1106 54.2975C75.1106 50.3208 78.4534 47.1384 82.5905 47.1384C84.5026 47.1893 86.3336 47.9216 87.7536 49.2032Z" fill="#231F20"/>
<path d="M93.0771 48.7194V53.4141H100.318V55.0053H93.0771V59.9393H101.43V61.5305H91.4121V47.2097H101.12V48.8009H93.0771V48.7194Z" fill="#231F20"/>
<path d="M115.041 61.5305L106.448 49.9924V61.5279H104.788V47.2097H106.458L115.051 58.7452V47.2097H116.642V61.5305H115.041Z" fill="#231F20"/>
<path d="M125.782 48.7194V61.4489H124.112V48.7194H119.417V47.1282H130.398V48.7194H125.782Z" fill="#231F20"/>
<path d="M140.024 56.9147C139.705 56.9147 139.387 56.9937 139.069 56.9937H135.25V61.5279H133.58V47.2097H138.99C142.569 47.2097 144.639 48.9613 144.639 51.9833C144.639 54.3714 143.527 55.9626 141.457 56.599L144.8 61.4515H142.977L140.024 56.9147ZM138.99 55.4025C141.615 55.4025 143.048 54.2899 143.048 52.0622C143.048 49.9135 141.536 48.8009 138.99 48.8009H135.171V55.4839H138.99V55.4025Z" fill="#231F20"/>
<path d="M162.3 54.3687C162.3 58.4269 158.96 61.6093 154.823 61.6093C150.607 61.6093 147.346 58.4269 147.346 54.3687C147.346 50.3106 150.688 47.1282 154.826 47.1282C158.963 47.1282 162.3 50.3106 162.3 54.3687ZM148.934 54.3687C148.934 57.5511 151.559 60.0181 154.823 60.0181C158.005 60.0181 160.63 57.4722 160.63 54.3687C160.63 51.1864 158.005 48.7194 154.823 48.7194C151.559 48.7194 148.934 51.1864 148.934 54.3687Z" fill="#231F20"/>
<path d="M87.7536 70.123L86.7989 71.396C85.6883 70.2552 84.1721 69.5992 82.5803 69.5706C79.3292 69.5706 76.7833 72.0325 76.7833 75.2149C76.7833 78.3183 79.4081 80.8642 82.5905 80.8642C83.3737 80.864 84.1492 80.7094 84.8726 80.4093C85.596 80.1092 86.2532 79.6694 86.8065 79.1152L87.8402 80.2303C86.4086 81.62 84.5038 82.416 82.509 82.458C78.3719 82.458 75.1106 79.2756 75.1106 75.2174C75.1106 71.2407 78.4534 68.0583 82.5905 68.0583C84.421 67.9743 86.3203 68.8501 87.7536 70.123Z" fill="#231F20"/>
<path d="M102.393 76.4878C102.393 80.2277 100.165 82.4554 96.425 82.4554C92.685 82.4554 90.3784 80.2277 90.3784 76.4878V68.043H92.0587V76.4776C92.0587 79.2628 93.7288 80.854 96.4351 80.854C99.1414 80.854 100.812 79.2628 100.812 76.4776V68.043H102.482V76.4776L102.393 76.4878Z" fill="#231F20"/>
<path d="M112.734 80.7037V82.3H104.788V67.9741H106.458V80.7037H112.734Z" fill="#231F20"/>
<path d="M118.941 69.4865V82.216H117.263V69.4865H112.576V67.8953H123.557V69.4865H118.941Z" fill="#231F20"/>
<path d="M137.717 76.3273C137.717 80.0673 135.489 82.2949 131.749 82.2949C128.009 82.2949 125.703 80.0673 125.703 76.3273V67.8953H127.373V76.3299C127.373 79.1151 129.043 80.7063 131.749 80.7063C134.456 80.7063 136.126 79.1151 136.126 76.3299V67.8953H137.796V76.3299L137.717 76.3273Z" fill="#231F20"/>
<path d="M146.864 77.6791C146.546 77.6791 146.228 77.7581 145.91 77.7581H142.091V82.3H140.431V67.9741H145.841C149.421 67.9741 151.49 69.7257 151.49 72.7477C151.49 75.1358 150.378 76.727 148.308 77.3634L151.633 82.2159H149.802L146.864 77.6791ZM145.91 76.1669C148.535 76.1669 149.968 75.0543 149.968 72.8266C149.968 70.6779 148.456 69.5653 145.91 69.5653H142.091V76.2483H145.91V76.1669Z" fill="#231F20"/>
<path d="M155.617 78.6339L154.026 82.3H152.277L158.721 67.9792H160.391L166.835 82.3H165.086L163.494 78.6415L155.617 78.6339ZM159.515 69.7232L156.333 76.9536H162.776L159.515 69.7232Z" fill="#231F20"/>
<path d="M176.074 80.7037V82.3H168.108V67.9741H169.778V80.7037H176.074Z" fill="#231F20"/>
<path d="M82.0252 99.5588H80.2762V103.299H75.5103V88.978H82.4326C86.3304 88.978 88.558 90.8085 88.558 94.1488C88.558 96.2186 87.7637 97.8098 86.2515 98.683L89.1156 103.378H83.7743L82.0252 99.5588ZM82.4224 95.9793C83.456 95.9793 84.0136 95.3428 84.0136 94.2302C84.0136 93.1966 83.456 92.5601 82.4224 92.5601H80.2737V95.9818L82.4224 95.9793Z" fill="#231F20"/>
<path d="M95.0731 92.5574V94.309H101.756V97.8885H95.0731V99.6401H102.632V103.22H90.2996V88.8989H102.472V92.4836H95.0731V92.5574Z" fill="#231F20"/>
<path d="M117.586 91.4449L114.883 94.7062C114.007 93.5122 112.734 92.7968 111.621 92.7968C109.872 92.7968 108.678 94.1487 108.678 96.0581C108.678 97.9675 109.951 99.4009 111.621 99.4009C112.655 99.4009 113.928 98.7644 114.883 97.7308L117.589 100.674C115.99 102.413 113.531 103.538 111.382 103.538C107.006 103.538 103.823 100.435 103.823 96.1396C103.823 91.9235 107.085 88.8201 111.621 88.8201C113.768 88.8175 116.156 89.7723 117.586 91.4449Z" fill="#231F20"/>
<path d="M133.42 96.048C133.42 100.346 130.079 103.446 125.542 103.446C121.006 103.446 117.668 100.356 117.668 96.048C117.668 91.7403 121.011 88.7285 125.545 88.7285C130.079 88.8176 133.42 91.8422 133.42 96.048ZM122.52 96.1269C122.52 98.1153 123.954 99.5486 125.624 99.5486C127.294 99.5486 128.567 98.1178 128.567 96.1269C128.567 94.136 127.294 92.7867 125.624 92.7867C123.951 92.718 122.52 94.1488 122.52 96.1371V96.1269Z" fill="#231F20"/>
<path d="M145.434 99.3195V103.299H134.692V88.978H139.466V99.401H145.434V99.3195Z" fill="#231F20"/>
<path d="M151.888 92.5574V94.309H158.571V97.8885H151.888V99.6401H159.446V103.22H147.104V88.8989H159.271V92.4836H151.888V92.5574Z" fill="#231F20"/>
<path d="M169.454 92.6363V103.217H164.686V92.6363H160.63V88.8989H173.528V92.6363H169.454Z" fill="#231F20"/>
<path d="M176.7 101.229L175.985 103.217H171.132L177.179 88.8965H182.031L187.838 103.217H182.747L182.031 101.229H176.7ZM179.406 93.6701L177.894 97.8861H180.911L179.406 93.6701Z" fill="#231F20"/>
</svg>
