<svg width="57" height="56" viewBox="0 0 57 56" fill="#none" xmlns="http://www.w3.org/2000/svg">
<path d="M28.4451 0.808103C13.2322 0.808104 0.851564 13.1884 0.851565 28.4025C0.851566 43.6196 13.2322 56 28.4452 56C43.6627 56 56.0434 43.6196 56.0434 28.4025C56.0419 13.1884 43.6627 0.808102 28.4451 0.808103ZM35.308 29.373L30.8202 29.373L30.8202 45.3767L24.1648 45.3767L24.1648 29.373L21.0018 29.373L21.0018 23.7181L24.1648 23.7181L24.1648 20.0605C24.1648 17.4437 25.4101 13.346 30.8795 13.346L35.8121 13.3663L35.8121 18.8543L32.2308 18.8543C31.6425 18.8543 30.8202 19.1492 30.8202 20.396L30.8202 23.7228L35.8917 23.7228L35.308 29.373Z" fill="#864299"/>
</svg>