<svg width="255" height="85" viewBox="0 0 255 85" fill="none" xmlns="http://www.w3.org/2000/svg">
<path fill-rule="evenodd" clip-rule="evenodd" d="M212.634 0H42.3598C18.9975 0 0 18.9863 0 42.3262C0 65.6845 18.9975 84.6972 42.3598 84.6972H212.635C235.993 84.6972 255 65.6845 255 42.3262C254.999 18.9863 235.993 0 212.634 0ZM212.634 80.7215H42.3598C21.1641 80.7215 3.97896 63.5397 3.97896 42.3269C3.97896 21.1568 21.1641 3.97041 42.3598 3.97041H212.635C233.826 3.97041 251.021 21.1562 251.021 42.3269C251.02 63.5397 233.826 80.7215 212.634 80.7215Z" fill="#979999"/>
<path fill-rule="evenodd" clip-rule="evenodd" d="M212.634 3.97046H42.369C21.1687 3.97046 3.979 21.1562 3.979 42.3269C3.979 63.5404 21.1687 80.7215 42.369 80.7215H212.634C233.828 80.7215 251.02 63.5397 251.02 42.3269C251.02 21.1562 233.829 3.97046 212.634 3.97046Z" fill="white"/>
<path fill-rule="evenodd" clip-rule="evenodd" d="M37.0786 28.3551H26.282L27.2642 19.7224H58.2868L57.3125 28.3551H46.5237L42.4888 64.5858H33.0227L37.0786 28.3551ZM62.3606 65.4456C54.4395 65.4456 50.6456 60.7221 51.6219 52.0571L52.4876 44.3125C53.4408 35.7271 57.9366 31.1432 65.1157 31.1432C71.807 31.1432 75.439 35.6067 74.6405 42.9109L73.8459 49.9748H59.4317L59.1249 52.7964C58.7036 56.5364 60.666 58.7438 64.5785 58.7438C66.6793 58.7438 69.2138 58.0005 72.2902 56.5357L72.5562 63.1066C68.8847 64.6424 65.5147 65.4456 62.3606 65.4456ZM67.5562 45.1446L67.8662 42.2927C68.2718 38.6666 67.1974 36.8489 64.7036 36.8489C62.433 36.8489 60.695 38.6666 60.3145 42.1215L59.9886 45.1446H67.5562ZM80.6609 31.9272H88.104L87.3134 38.9931C90.7137 33.6962 94.1199 31.3196 97.6571 31.1425L96.3754 42.3598C92.5676 42.5541 89.5728 43.3862 87.1916 45.4277L85.0553 64.5865H76.9907L80.6609 31.9272ZM100.679 54.8886C102.618 57.4712 104.635 58.8136 106.669 58.8136C108.664 58.8136 110.128 57.5634 110.286 56.171C110.537 54.0295 108.408 53.2348 104.772 50.7213C100.64 47.8181 98.4695 45.662 99.0133 40.8365C99.6552 35.1728 104.289 31.1735 110.471 31.1735C113.331 31.1735 116.236 32.2321 119.441 34.3308L115.122 40.0438C113.542 38.2472 111.645 37.3282 109.556 37.3282C107.627 37.3282 106.537 38.1235 106.373 39.6041C106.209 41.1992 108.027 42.1604 110.981 44.2104C112.736 45.3697 114.645 46.4731 116.319 48.196C117.828 49.8023 118.52 52.0578 118.203 54.8254C117.516 60.9051 112.766 65.3218 106.246 65.3218C102.518 65.3218 99.249 63.7939 96.2345 60.8393L100.679 54.8886ZM145.336 64.5858H137.23L137.918 58.3639C134.352 63.0611 131.131 65.3212 127.516 65.3212C123.555 65.3212 121.199 62.491 121.667 58.1414L124.617 31.9272H132.711L130.435 52.3178C130.013 55.9946 130.206 57.4034 132.597 57.4034C134.124 57.4034 136.043 56.3132 138.392 54.0887L140.889 31.9272H148.972L145.336 64.5858ZM157.588 65.3212C152.835 65.3212 150.149 61.6951 150.742 56.3126C151.558 48.9814 157.183 44.5639 167.613 43.1024L167.91 40.529C168.126 38.606 166.768 37.2038 164.179 37.2038C161.863 37.2038 159.454 38.3842 156.646 40.529L153.423 35.4171C157.003 32.5461 160.912 31.1735 165.338 31.1735C173.033 31.1735 176.621 34.9845 175.788 42.4178L174.232 56.4692C174.101 57.5351 174.56 58.2606 175.447 58.5022L174.735 64.8926C174.274 64.9657 173.812 64.9657 173.392 64.9657C170.064 64.9657 167.944 63.6648 166.803 60.9808C163.602 63.8959 160.827 65.3212 157.588 65.3212ZM158.664 54.7661C158.411 57.1427 159.702 58.7431 161.561 58.7431C164.174 58.7431 166.132 56.4185 166.643 51.8899L167.049 48.0636C162.086 48.7628 159.039 51.5015 158.664 54.7661ZM179.525 31.9272H187.532L189.751 51.1887L196.272 31.9272H204.254L192.104 64.5858H184.393L179.525 31.9272ZM214.356 65.4456C206.425 65.4456 202.621 60.7221 203.603 52.0571L204.466 44.3125C205.428 35.7271 209.9 31.1432 217.077 31.1432C223.79 31.1432 227.432 35.6067 226.614 42.9109L225.836 49.9748H211.418L211.111 52.7964C210.691 56.5364 212.665 58.7438 216.561 58.7438C218.667 58.7438 221.206 58.0005 224.283 56.5357L224.524 63.1066C220.864 64.6424 217.506 65.4456 214.356 65.4456ZM219.549 45.1446L219.849 42.2927C220.263 38.6666 219.195 36.8489 216.68 36.8489C214.403 36.8489 212.687 38.6666 212.287 42.1215L211.969 45.1446H219.549Z" fill="#3A75C4"/>
<path fill-rule="evenodd" clip-rule="evenodd" d="M125.406 25.4525C125.406 25.4525 226.085 10.7394 228.723 25.4525H125.406Z" fill="#D81E05"/>
</svg>
