<svg width="66" height="70" viewBox="0 0 66 70" fill="none" xmlns="http://www.w3.org/2000/svg">
<path d="M64.9925 63.759L48.723 46.433C52.9116 41.3408 55.1937 34.9294 55.1937 28.26C55.1937 12.6768 42.818 -3.74327e-06 27.5992 -2.4128e-06C12.3804 -1.08233e-06 1.10824e-06 12.6768 2.47056e-06 28.26C3.83331e-06 43.848 12.3804 56.5248 27.5992 56.5248C33.3092 56.5248 38.7625 54.7625 43.4123 51.4083L59.8007 68.8706C60.4853 69.6008 61.4077 70 62.4013 70C63.3285 70 64.2223 69.63 64.8879 68.9679C66.3285 67.5562 66.376 65.2292 64.9925 63.759ZM27.5992 7.37534C38.8529 7.37534 48.0003 16.7466 48.0003 28.2648C48.0003 39.783 38.8529 49.1592 27.5992 49.1592C16.3551 49.1592 7.19815 39.7879 7.19815 28.2648C7.19814 16.7466 16.3503 7.37534 27.5992 7.37534Z" fill="#231F20"/>
</svg>
